<mxfile host="65bd71144e">
    <diagram id="xzKfJq7aABoRWpQAIAvF" name="1:1">
        <mxGraphModel dx="892" dy="426" grid="1" gridSize="10" guides="1" tooltips="1" connect="1" arrows="1" fold="1" page="1" pageScale="1" pageWidth="827" pageHeight="1169" math="0" shadow="0">
            <root>
                <mxCell id="0"/>
                <mxCell id="1" parent="0"/>
                <mxCell id="10" value="" style="edgeStyle=orthogonalEdgeStyle;rounded=0;orthogonalLoop=1;jettySize=auto;html=1;" parent="1" source="2" edge="1">
                    <mxGeometry relative="1" as="geometry">
                        <mxPoint x="240" y="380" as="targetPoint"/>
                    </mxGeometry>
                </mxCell>
                <mxCell id="2" value="cats" style="whiteSpace=wrap;html=1;align=center;" parent="1" vertex="1">
                    <mxGeometry x="190" y="260" width="100" height="40" as="geometry"/>
                </mxCell>
                <mxCell id="4" value="cat_name" style="ellipse;whiteSpace=wrap;html=1;align=center;" parent="1" vertex="1">
                    <mxGeometry x="40" y="260" width="100" height="40" as="geometry"/>
                </mxCell>
                <mxCell id="5" value="fur_color" style="ellipse;whiteSpace=wrap;html=1;align=center;" parent="1" vertex="1">
                    <mxGeometry x="190" y="340" width="100" height="40" as="geometry"/>
                </mxCell>
                <mxCell id="6" value="" style="endArrow=none;html=1;rounded=0;exitX=1;exitY=0.5;exitDx=0;exitDy=0;entryX=0;entryY=0.5;entryDx=0;entryDy=0;" parent="1" source="4" target="2" edge="1">
                    <mxGeometry relative="1" as="geometry">
                        <mxPoint x="390" y="320" as="sourcePoint"/>
                        <mxPoint x="550" y="320" as="targetPoint"/>
                    </mxGeometry>
                </mxCell>
                <mxCell id="7" value="" style="endArrow=none;html=1;rounded=0;exitX=0.5;exitY=0;exitDx=0;exitDy=0;entryX=0.5;entryY=1;entryDx=0;entryDy=0;" parent="1" source="2" edge="1">
                    <mxGeometry relative="1" as="geometry">
                        <mxPoint x="160" y="290" as="sourcePoint"/>
                        <mxPoint x="240" y="220" as="targetPoint"/>
                    </mxGeometry>
                </mxCell>
                <mxCell id="8" value="" style="endArrow=none;html=1;rounded=0;exitX=0.5;exitY=0;exitDx=0;exitDy=0;entryX=0.5;entryY=1;entryDx=0;entryDy=0;" parent="1" source="5" target="2" edge="1">
                    <mxGeometry relative="1" as="geometry">
                        <mxPoint x="250" y="270" as="sourcePoint"/>
                        <mxPoint x="250" y="240" as="targetPoint"/>
                    </mxGeometry>
                </mxCell>
                <mxCell id="12" value="servants" style="whiteSpace=wrap;html=1;align=center;" parent="1" vertex="1">
                    <mxGeometry x="510" y="260" width="100" height="40" as="geometry"/>
                </mxCell>
                <mxCell id="14" value="yrs_served" style="ellipse;whiteSpace=wrap;html=1;align=center;" parent="1" vertex="1">
                    <mxGeometry x="660" y="260" width="100" height="40" as="geometry"/>
                </mxCell>
                <mxCell id="15" value="servant_name" style="ellipse;whiteSpace=wrap;html=1;align=center;" parent="1" vertex="1">
                    <mxGeometry x="510" y="340" width="100" height="40" as="geometry"/>
                </mxCell>
                <mxCell id="16" value="" style="endArrow=none;html=1;rounded=0;entryX=1;entryY=0.5;entryDx=0;entryDy=0;exitX=0;exitY=0.5;exitDx=0;exitDy=0;" parent="1" source="14" target="12" edge="1">
                    <mxGeometry relative="1" as="geometry">
                        <mxPoint x="650" y="290" as="sourcePoint"/>
                        <mxPoint x="620" y="280" as="targetPoint"/>
                    </mxGeometry>
                </mxCell>
                <mxCell id="17" value="" style="endArrow=none;html=1;rounded=0;exitX=0.5;exitY=0;exitDx=0;exitDy=0;entryX=0.5;entryY=1;entryDx=0;entryDy=0;" parent="1" source="12" edge="1">
                    <mxGeometry relative="1" as="geometry">
                        <mxPoint x="490" y="285" as="sourcePoint"/>
                        <mxPoint x="560" y="220" as="targetPoint"/>
                    </mxGeometry>
                </mxCell>
                <mxCell id="18" value="" style="endArrow=none;html=1;rounded=0;entryX=0.5;entryY=1;entryDx=0;entryDy=0;exitX=0.5;exitY=0;exitDx=0;exitDy=0;" parent="1" source="15" target="12" edge="1">
                    <mxGeometry relative="1" as="geometry">
                        <mxPoint x="610" y="320" as="sourcePoint"/>
                        <mxPoint x="580" y="235" as="targetPoint"/>
                    </mxGeometry>
                </mxCell>
                <mxCell id="19" value="has a" style="shape=rhombus;perimeter=rhombusPerimeter;whiteSpace=wrap;html=1;align=center;" parent="1" vertex="1">
                    <mxGeometry x="340" y="250" width="120" height="60" as="geometry"/>
                </mxCell>
                <mxCell id="20" value="" style="endArrow=none;html=1;rounded=0;exitX=1;exitY=0.5;exitDx=0;exitDy=0;entryX=0;entryY=0.5;entryDx=0;entryDy=0;" parent="1" source="19" target="12" edge="1">
                    <mxGeometry relative="1" as="geometry">
                        <mxPoint x="410" y="320" as="sourcePoint"/>
                        <mxPoint x="570" y="320" as="targetPoint"/>
                    </mxGeometry>
                </mxCell>
                <mxCell id="21" value="" style="endArrow=none;html=1;rounded=0;exitX=1;exitY=0.5;exitDx=0;exitDy=0;entryX=0;entryY=0.5;entryDx=0;entryDy=0;" parent="1" source="2" target="19" edge="1">
                    <mxGeometry relative="1" as="geometry">
                        <mxPoint x="410" y="320" as="sourcePoint"/>
                        <mxPoint x="570" y="320" as="targetPoint"/>
                    </mxGeometry>
                </mxCell>
                <mxCell id="22" value="id" style="ellipse;whiteSpace=wrap;html=1;align=center;fontStyle=4;" parent="1" vertex="1">
                    <mxGeometry x="190" y="180" width="100" height="40" as="geometry"/>
                </mxCell>
                <mxCell id="23" value="id" style="ellipse;whiteSpace=wrap;html=1;align=center;fontStyle=4;" parent="1" vertex="1">
                    <mxGeometry x="510" y="180" width="100" height="40" as="geometry"/>
                </mxCell>
                <mxCell id="24" value="1" style="text;strokeColor=none;fillColor=none;spacingLeft=4;spacingRight=4;overflow=hidden;rotatable=0;points=[[0,0.5],[1,0.5]];portConstraint=eastwest;fontSize=12;" parent="1" vertex="1">
                    <mxGeometry x="290" y="250" width="40" height="30" as="geometry"/>
                </mxCell>
                <mxCell id="25" value="       1" style="text;strokeColor=none;fillColor=none;spacingLeft=4;spacingRight=4;overflow=hidden;rotatable=0;points=[[0,0.5],[1,0.5]];portConstraint=eastwest;fontSize=12;" parent="1" vertex="1">
                    <mxGeometry x="470" y="250" width="40" height="30" as="geometry"/>
                </mxCell>
            </root>
        </mxGraphModel>
    </diagram>
    <diagram name="1:n" id="RVx5oCan0pYAA1m9mx1Z">
        <mxGraphModel dx="892" dy="426" grid="1" gridSize="10" guides="1" tooltips="1" connect="1" arrows="1" fold="1" page="1" pageScale="1" pageWidth="827" pageHeight="1169" math="0" shadow="0">
            <root>
                <mxCell id="1Mw04bcDEl618LJGt6rv-0"/>
                <mxCell id="1Mw04bcDEl618LJGt6rv-1" parent="1Mw04bcDEl618LJGt6rv-0"/>
                <mxCell id="1Mw04bcDEl618LJGt6rv-2" value="" style="edgeStyle=orthogonalEdgeStyle;rounded=0;orthogonalLoop=1;jettySize=auto;html=1;" edge="1" parent="1Mw04bcDEl618LJGt6rv-1" source="1Mw04bcDEl618LJGt6rv-3">
                    <mxGeometry relative="1" as="geometry">
                        <mxPoint x="240" y="380" as="targetPoint"/>
                    </mxGeometry>
                </mxCell>
                <mxCell id="1Mw04bcDEl618LJGt6rv-3" value="cats" style="whiteSpace=wrap;html=1;align=center;" vertex="1" parent="1Mw04bcDEl618LJGt6rv-1">
                    <mxGeometry x="190" y="260" width="100" height="40" as="geometry"/>
                </mxCell>
                <mxCell id="1Mw04bcDEl618LJGt6rv-4" value="cat_name" style="ellipse;whiteSpace=wrap;html=1;align=center;" vertex="1" parent="1Mw04bcDEl618LJGt6rv-1">
                    <mxGeometry x="40" y="260" width="100" height="40" as="geometry"/>
                </mxCell>
                <mxCell id="1Mw04bcDEl618LJGt6rv-5" value="fur_color" style="ellipse;whiteSpace=wrap;html=1;align=center;" vertex="1" parent="1Mw04bcDEl618LJGt6rv-1">
                    <mxGeometry x="190" y="340" width="100" height="40" as="geometry"/>
                </mxCell>
                <mxCell id="1Mw04bcDEl618LJGt6rv-6" value="" style="endArrow=none;html=1;rounded=0;exitX=1;exitY=0.5;exitDx=0;exitDy=0;entryX=0;entryY=0.5;entryDx=0;entryDy=0;" edge="1" parent="1Mw04bcDEl618LJGt6rv-1" source="1Mw04bcDEl618LJGt6rv-4" target="1Mw04bcDEl618LJGt6rv-3">
                    <mxGeometry relative="1" as="geometry">
                        <mxPoint x="390" y="320" as="sourcePoint"/>
                        <mxPoint x="550" y="320" as="targetPoint"/>
                    </mxGeometry>
                </mxCell>
                <mxCell id="1Mw04bcDEl618LJGt6rv-7" value="" style="endArrow=none;html=1;rounded=0;exitX=0.5;exitY=0;exitDx=0;exitDy=0;entryX=0.5;entryY=1;entryDx=0;entryDy=0;" edge="1" parent="1Mw04bcDEl618LJGt6rv-1" source="1Mw04bcDEl618LJGt6rv-3">
                    <mxGeometry relative="1" as="geometry">
                        <mxPoint x="160" y="290" as="sourcePoint"/>
                        <mxPoint x="240" y="220" as="targetPoint"/>
                    </mxGeometry>
                </mxCell>
                <mxCell id="1Mw04bcDEl618LJGt6rv-8" value="" style="endArrow=none;html=1;rounded=0;exitX=0.5;exitY=0;exitDx=0;exitDy=0;entryX=0.5;entryY=1;entryDx=0;entryDy=0;" edge="1" parent="1Mw04bcDEl618LJGt6rv-1" source="1Mw04bcDEl618LJGt6rv-5" target="1Mw04bcDEl618LJGt6rv-3">
                    <mxGeometry relative="1" as="geometry">
                        <mxPoint x="250" y="270" as="sourcePoint"/>
                        <mxPoint x="250" y="240" as="targetPoint"/>
                    </mxGeometry>
                </mxCell>
                <mxCell id="1Mw04bcDEl618LJGt6rv-9" value="kittens" style="whiteSpace=wrap;html=1;align=center;" vertex="1" parent="1Mw04bcDEl618LJGt6rv-1">
                    <mxGeometry x="510" y="260" width="100" height="40" as="geometry"/>
                </mxCell>
                <mxCell id="1Mw04bcDEl618LJGt6rv-10" value="kitten_name" style="ellipse;whiteSpace=wrap;html=1;align=center;" vertex="1" parent="1Mw04bcDEl618LJGt6rv-1">
                    <mxGeometry x="660" y="260" width="100" height="40" as="geometry"/>
                </mxCell>
                <mxCell id="1Mw04bcDEl618LJGt6rv-11" value="fur_color" style="ellipse;whiteSpace=wrap;html=1;align=center;" vertex="1" parent="1Mw04bcDEl618LJGt6rv-1">
                    <mxGeometry x="510" y="340" width="100" height="40" as="geometry"/>
                </mxCell>
                <mxCell id="1Mw04bcDEl618LJGt6rv-12" value="" style="endArrow=none;html=1;rounded=0;entryX=1;entryY=0.5;entryDx=0;entryDy=0;exitX=0;exitY=0.5;exitDx=0;exitDy=0;" edge="1" parent="1Mw04bcDEl618LJGt6rv-1" source="1Mw04bcDEl618LJGt6rv-10" target="1Mw04bcDEl618LJGt6rv-9">
                    <mxGeometry relative="1" as="geometry">
                        <mxPoint x="650" y="290" as="sourcePoint"/>
                        <mxPoint x="620" y="280" as="targetPoint"/>
                    </mxGeometry>
                </mxCell>
                <mxCell id="1Mw04bcDEl618LJGt6rv-13" value="" style="endArrow=none;html=1;rounded=0;exitX=0.5;exitY=0;exitDx=0;exitDy=0;entryX=0.5;entryY=1;entryDx=0;entryDy=0;" edge="1" parent="1Mw04bcDEl618LJGt6rv-1" source="1Mw04bcDEl618LJGt6rv-9">
                    <mxGeometry relative="1" as="geometry">
                        <mxPoint x="490" y="285" as="sourcePoint"/>
                        <mxPoint x="560" y="220" as="targetPoint"/>
                    </mxGeometry>
                </mxCell>
                <mxCell id="1Mw04bcDEl618LJGt6rv-14" value="" style="endArrow=none;html=1;rounded=0;entryX=0.5;entryY=1;entryDx=0;entryDy=0;exitX=0.5;exitY=0;exitDx=0;exitDy=0;" edge="1" parent="1Mw04bcDEl618LJGt6rv-1" source="1Mw04bcDEl618LJGt6rv-11" target="1Mw04bcDEl618LJGt6rv-9">
                    <mxGeometry relative="1" as="geometry">
                        <mxPoint x="610" y="320" as="sourcePoint"/>
                        <mxPoint x="580" y="235" as="targetPoint"/>
                    </mxGeometry>
                </mxCell>
                <mxCell id="1Mw04bcDEl618LJGt6rv-15" value="has a" style="shape=rhombus;perimeter=rhombusPerimeter;whiteSpace=wrap;html=1;align=center;" vertex="1" parent="1Mw04bcDEl618LJGt6rv-1">
                    <mxGeometry x="340" y="250" width="120" height="60" as="geometry"/>
                </mxCell>
                <mxCell id="1Mw04bcDEl618LJGt6rv-16" value="" style="endArrow=none;html=1;rounded=0;exitX=1;exitY=0.5;exitDx=0;exitDy=0;entryX=0;entryY=0.5;entryDx=0;entryDy=0;" edge="1" parent="1Mw04bcDEl618LJGt6rv-1" source="1Mw04bcDEl618LJGt6rv-15" target="1Mw04bcDEl618LJGt6rv-9">
                    <mxGeometry relative="1" as="geometry">
                        <mxPoint x="410" y="320" as="sourcePoint"/>
                        <mxPoint x="570" y="320" as="targetPoint"/>
                    </mxGeometry>
                </mxCell>
                <mxCell id="1Mw04bcDEl618LJGt6rv-17" value="" style="endArrow=none;html=1;rounded=0;exitX=1;exitY=0.5;exitDx=0;exitDy=0;entryX=0;entryY=0.5;entryDx=0;entryDy=0;" edge="1" parent="1Mw04bcDEl618LJGt6rv-1" source="1Mw04bcDEl618LJGt6rv-3" target="1Mw04bcDEl618LJGt6rv-15">
                    <mxGeometry relative="1" as="geometry">
                        <mxPoint x="410" y="320" as="sourcePoint"/>
                        <mxPoint x="570" y="320" as="targetPoint"/>
                    </mxGeometry>
                </mxCell>
                <mxCell id="1Mw04bcDEl618LJGt6rv-18" value="id" style="ellipse;whiteSpace=wrap;html=1;align=center;fontStyle=4;" vertex="1" parent="1Mw04bcDEl618LJGt6rv-1">
                    <mxGeometry x="190" y="180" width="100" height="40" as="geometry"/>
                </mxCell>
                <mxCell id="1Mw04bcDEl618LJGt6rv-19" value="id" style="ellipse;whiteSpace=wrap;html=1;align=center;fontStyle=4;" vertex="1" parent="1Mw04bcDEl618LJGt6rv-1">
                    <mxGeometry x="510" y="180" width="100" height="40" as="geometry"/>
                </mxCell>
                <mxCell id="1Mw04bcDEl618LJGt6rv-20" value="1" style="text;strokeColor=none;fillColor=none;spacingLeft=4;spacingRight=4;overflow=hidden;rotatable=0;points=[[0,0.5],[1,0.5]];portConstraint=eastwest;fontSize=12;" vertex="1" parent="1Mw04bcDEl618LJGt6rv-1">
                    <mxGeometry x="290" y="250" width="40" height="30" as="geometry"/>
                </mxCell>
                <mxCell id="1Mw04bcDEl618LJGt6rv-21" value="       n" style="text;strokeColor=none;fillColor=none;spacingLeft=4;spacingRight=4;overflow=hidden;rotatable=0;points=[[0,0.5],[1,0.5]];portConstraint=eastwest;fontSize=12;" vertex="1" parent="1Mw04bcDEl618LJGt6rv-1">
                    <mxGeometry x="470" y="250" width="40" height="30" as="geometry"/>
                </mxCell>
            </root>
        </mxGraphModel>
    </diagram>
</mxfile>